<svg width="66" height="58" viewBox="0 0 66 58" fill="none" xmlns="http://www.w3.org/2000/svg">
<path d="M17.0243 49.9541L13.9119 55.3679C12.7695 57.3381 10.2528 58.017 8.26613 56.8746C6.2959 55.7322 5.61703 53.2157 6.75942 51.2288L9.06078 47.2388L9.27613 46.858C9.67346 46.2951 10.6503 45.3183 12.5873 45.5003C12.5873 45.5003 17.1735 45.997 17.5044 48.3812C17.5044 48.3978 17.5542 49.1758 17.0243 49.9541ZM61.3123 36.146H51.5773C50.915 36.0964 50.6171 35.8647 50.5177 35.7321V35.7157L40.0872 17.6693L40.0706 17.6859L39.4415 16.7918C38.4151 15.2189 36.7924 19.2256 36.7924 19.2256C34.8554 23.6957 37.074 28.762 37.8356 30.3017L52.3058 55.3845C53.4481 57.3547 55.9647 58.0334 57.9515 56.891C59.9216 55.7486 60.6004 53.2321 59.458 51.2454L55.8323 44.9706C55.7659 44.8216 55.6335 44.4077 56.3786 44.4077H61.2957C63.5805 44.4077 65.4183 42.5534 65.4183 40.2851C65.4349 38.0003 63.5971 36.146 61.3123 36.146ZM42.405 41.7586C42.405 41.7586 42.9183 44.4077 40.9151 44.4077H38.8952H4.90516C2.62038 44.4077 0.782715 42.5534 0.782715 40.2851C0.782715 38.0003 2.63698 36.1626 4.90516 36.1626H14.1602C15.6502 36.0798 16.0145 35.219 16.0145 35.219L28.1005 14.2919C28.3158 13.8946 28.1336 13.5136 28.1005 13.4474L24.1104 6.54352C22.968 4.57329 23.6469 2.04017 25.6171 0.897777C27.5873 -0.24461 30.1203 0.434258 31.2627 2.40449L33.1171 5.6163L34.9714 2.42108C36.1138 0.45085 38.6303 -0.228019 40.6169 0.914369C42.5872 2.05676 43.266 4.57329 42.1236 6.56012L25.319 35.6659C25.2528 35.8481 25.2198 36.1294 25.7661 36.1626H35.8156V36.262C35.7992 36.2454 41.6103 36.3282 42.405 41.7586Z" fill="white"/>
</svg>
